<?xml version="1.0" encoding="UTF-8"?><svg id="katman_2" xmlns="http://www.w3.org/2000/svg" viewBox="0 0 592 592"><defs><style>.cls-1{fill:#887c5b;}.cls-2{fill:#161a1f;}</style></defs><g id="katman_1"><g><path class="cls-2" d="M1,1c197,0,394,0,591,0,0,197,0,394,0,591-197,0-394,0-591,0,0-197,0-394,0-591ZM292,545.93c138.21-.83,247.96-110.65,248.88-247.5,1.01-150.08-120.29-253.01-254.89-250.9-132.68,2.08-243.95,108.05-244.13,247.23-.18,139.8,111.51,251.48,250.14,251.16Z"/><path class="cls-1" d="M292,545.93c-138.62,.32-250.32-111.37-250.14-251.16,.18-139.19,111.45-245.15,244.13-247.23,134.6-2.12,255.9,100.82,254.89,250.9-.92,136.85-110.68,246.66-248.88,247.5Zm242.18-248.47c.54-140.62-111.94-243.13-245.87-243.21-126.72-.07-245.02,102.18-239.85,251.12,4.4,126.7,107.94,233.76,243.72,233.56,134.84-.2,241.14-107.86,242-241.46Z"/><path class="cls-2" d="M534.19,297.47c-.85,133.6-107.16,241.26-242,241.46-135.78,.2-239.32-106.86-243.72-233.56-5.17-148.93,113.13-251.19,239.85-251.12,133.93,.08,246.4,102.59,245.87,243.21Zm-41.79-53.08l.07-.07c-7.36,8.38-13.67,17.57-20.2,26.58-1.97,2.72-1.16,5.31,2.22,7.6,11.38-5.15,22.98-10.4,34.46-15.59-.38-2.04-.5-3.59-2.69-4.4-8.27,3.7-16.85,7.54-25.44,11.38,5.07-8.65,10.61-16.33,16.42-23.81,2.92-3.75,2.71-6.81-1.18-10.23-11.41,5.17-22.86,10.37-34.13,15.48-.22,2.1-.13,3.53,2.14,4.66,6.54-2.94,13.45-6.15,20.44-9.15,2.52-1.08,4.8-3.11,7.88-2.46Zm-167.94,140.88l-1.14,.25c.13,.26,.26,.52,.38,.78-.15,6.26,3.68,11.89,3.19,19.34-6.5-6.62-10.67-13.64-14.54-21.24-7.2,3.92-12.7,10.07-20.7,10.66-8.26,.61-13.8-5.8-20.83-9.4-4.13,6.78-6.86,14.22-14.03,19.33,.46-7.26,3.42-13.42,2.98-20.58-6.93,6.01-8.99,10.34-9.32,19.18-.13,3.47-.69,7.5,3.25,9.18,3.99,1.7,6.94-1.01,9.54-3.76,1.72-1.81,3.38-3.68,5.13-5.46,2.97-3.01,5.12-6.82,9.55-9.89-.26,6.48-1.51,11.79-3.09,16.65-2.02,1.34-4.23,.3-5.73,2.2-.59,3.52-.87,7.26,.16,10.97,3.58,1.48,6.86,2.17,10.07-.94-1.14-7.79,1.36-14.53,6.3-20.71,2.23,1.71,2.2,3.61,2.24,5.4,.13,5.83,.25,11.66,.19,17.48-.03,2.89,.21,5.72,1.5,8.27,1.72,3.41,4.29,5.26,8.59,3.57-6.23-12.1-.72-24.17-1.16-36.27,7.13,6.49,8.33,15.21,9.74,23.79,3.26,.39,5.99,.44,8.9-.69,0-3.64,1.56-7.08,.72-10.59-7.56-3.08-10.87-9.54-9.48-18.41,4.3,2.11,6.36,6.29,9.36,9.5,2.61,2.79,4.88,5.96,8.5,7.57,3.92,1.74,7.44,.54,7.87-2.99,1.08-9-.11-17.34-8.15-23.19Zm-55.72-105.14c-5.68-1.7-7.26-5.71-7.96-10.68-1.93-13.68-7.75-25.08-18.71-34.12-8.78-7.24-15.87-16.25-19.3-27.44-3.91-12.73,.89-18.9,14.08-17.57,23.26,2.35,39.67,14.36,48.24,36.28,3.21,8.22,4.18,16.93,2.8,25.96-6.97-9.44-13.97-18.62-22.56-26.5-8.43-7.73-17.25-14.84-26.78-21.02-.54,.61-1.08,1.21-1.62,1.82,3.46,3.06,6.96,6.09,10.39,9.2,14.37,13.05,27.55,27.07,36.71,44.45,2.23,4.24,3.58,8.66,3.82,13.33,.22,4.3,.11,8.59,1.97,13.44-5.15-.73-9.81,1.04-14.26-2.18-2.16-1.56-5.79-2.15-6.04,1.96-.46,7.57-5.77,13.91-4.57,20.96-1.57,2.26-4.17,1.32-4.97,3.42,1.24,1.43,2.94,1.4,4.56,1.7,7.2,1.35,14.41,2.66,21.57,4.2,3.33,.72,6.53,.73,9.88,.15,10.51-1.84,20.82-4.34,30.68-8.47,1.98-.83,3.1,.01,3.76,1.45,.2,2.54-2.44,2.82-3.08,4.95,4.5,.89,8.91,1.89,13.2,6.07-8.94-.01-16.54,1.32-23.96,3.86-9.93,3.4-14.36,11.04-15.54,20.63-.68,5.54-.11,11.32,.57,16.91,.45,3.64,2.81,6.27,7.17,6.11,3.65-4.81,4.14-10.78,6.23-16.12,2.76,.97,2.77,3.14,3.14,5.01,.68,3.43,1.1,6.91,1.83,10.33,2.62,12.4,9.52,21.8,20.27,28.42,1.53,.94,3.03,2.23,5.34,1.01,.75-3.77,1.01-7.73-.9-11.41-1.9-3.66-4.17-7.14-6.36-10.83,3.88-5.62,9.56-9.18,13.64-14.7,17.06,7.66,34.6,5.32,52.74,5.64-5.4-14.81-14.19-26-23.79-37.69,10.38-3.38,19.6-6.49,29.5-7.11,10.07-.63,18.84,4.29,27.76,7.14,2.06-3.15,1-4.88-1.16-6.09-4.9-2.73-9.27-6.43-14.61-8.35-10.1-3.63-19.28-9.04-28.45-14.46-1.06-.63-2.55-.92-2.47-2.95,7.77-2.36,14.99-6.09,22.1-10.05,1.45-.81,2.81-.66,4.32-.42,9.72,1.52,19.51,2.35,29.33,2.75,3.89,.16,7.9,1.19,11.84-.22,.62-3.76-1.05-5.48-4.49-5.73-2.33-.17-4.66-.2-6.99-.36-7.99-.56-16.03-.72-24.52-2.18,7.23-6.63,13.88-12.75,17.82-21.06-4.89-.37-7.05,3.16-9.78,5.59-12.94,11.52-26.87,21.27-43.79,26.17-4.49,1.3-8.73,1.65-13.18,.11-7.5-2.61-15.23-3.37-23.13-2.43-1.15,.14-2.33,.02-3.49,.02,15.69-7.57,29.56-17.06,40.58-30.47,10.88-13.23,19.33-27.51,21.76-44.82-3.75-1.2-6.04,.06-8.31,.94-12.15,4.7-22.38,12.38-31.97,20.98-11.14,10-21.52,20.85-33.41,30.03-1.6,1.23-3.02,2.91-5.79,2.86,1.38-9.51,5.03-17.52,11.15-24.41,4.31-4.85,8.93-9.45,12.99-14.49,7.41-9.2,13.33-19.16,13.6-31.49,.15-6.77-2.53-10.6-9.07-12.55-3.67-1.09-7.43-1.76-11.3-1.84-9.29-.2-18.08,1.86-27,6.26-4.08-17.61-13.52-31.19-27.31-42.05-14.98,10.83-26.14,23.75-29.77,41.77-.95-.08-1.31-.03-1.59-.15-1.38-.58-2.73-1.23-4.11-1.8-11.11-4.66-22.45-6.19-34.12-2.35-6.77,2.22-8.77,4.89-9.14,12-.34,6.67,1.44,12.85,4.38,18.76,5.04,10.14,12.79,18.14,20.85,25.77,6.98,6.6,11.84,14.32,14.75,23.37,.46,1.44,1.57,2.95,.45,4.58-1.98-.04-3.18-1.32-4.58-2.15-9.11-5.41-16.5-12.81-23.67-20.48-10.17-10.87-21.27-20.64-34.29-28.01-5.58-3.16-11.54-5.35-18.43-6.26-.37,19.55,9.47,33.79,20.32,47.37,10.95,13.7,25.83,22.42,41.28,30.4-3.99,.67-7.88,.36-11.54,1.15-10.66,2.3-21,1.26-31.38-1.63-18.51-5.17-32.45-17.14-45.59-30.31-1.28-1.29-2.06-2.51-4.62-1.3,1.88,10.05,11.28,14.63,16.51,21.99-1.11,1.6-2.57,1.23-3.83,1.39-8.6,1.11-17.23,1.83-25.9,1.98-3.01,.05-5.19,.87-4.79,4.7,2.47,1.17,4.99,.99,7.44,1.07,9.86,.32,19.69-.29,29.34-2.31,4.28-.9,7.74-.12,11.35,2.05,5.88,3.55,12.37,5.72,19,7.46,1.72,.45,3.66,.4,4.98,2.47-10.07,4.54-19.98,9.13-30,13.47-6.42,2.78-12.95,5.33-18.93,9.01-2.03,1.25-4.6,2.45-2.33,6.68,19.52-10.09,38.95-6.7,58.9,.98-11.19,11.36-20.61,23.23-26.71,38.25,18.35,1.03,35.72,.19,52.27-8.7,3.32,5.1,6.38,9.8,9.44,14.49,1.94,2.96,1.91,5.6-.21,8.71-3.31,4.86-4.61,10.37-3.52,16.75,6.56-2.03,11.63-5.1,15.97-9.7,7.52-7.97,10.32-17.6,10.94-28.18,.14-2.35,.03-4.87,1.98-6.98,5.22,3.83,3.52,11.34,8.34,14.82,2.74-.67,4.04-2.38,5.15-4.28,4.68-8.05,3.93-16.6,1.77-25.04-1.53-5.95-5.73-9.9-11.42-12.41-7.81-3.45-15.88-5.64-25.17-5.72,3.6-3.41,7.73-4.38,11.62-6.47-1.66-3,.69-5.59,.86-8.47-4.9,.06-8.1,1.38-14.34,7.28-10,9.48-22.11,9.95-34.51,8.17-6.87-.98-13.56-3.34-20.27-5.29-1.45-.42-3.4-.23-4.25-1.97,.1-1.98,1.69-2.42,2.96-3.13,21.41-11.93,44.03-16.71,68.35-11.55,5.09,1.08,7.81-1.09,8.76-6.59-1.36-1.61-3.39-2.01-5.25-2.66-8.02-2.81-15.89-5.99-23.58-9.62-21.18-10.01-37.64-24.91-47.83-46.23-1.82-3.81-3.67-7.76-3.29-12.17,.63-.17,.99-.39,1.25-.31,.78,.26,1.53,.62,2.27,.97,10.1,4.73,18.62,11.65,26.37,19.5,16.09,16.32,33.23,31.36,52.83,43.59,.77-1.44,1.93-3.61,3.55-6.64ZM115.23,184.33c-9.03-.2-16.82,7.34-17.11,16.56-.33,10.58,10.08,20,22.33,20.2,9.32,.15,17.43-7.76,17.73-17.31,.33-10.39-10.02-19.17-22.95-19.45Zm305.8-6.56c2.85,5.68,6.67,10.25,10.29,14.96,3.1,4.04,7.31,5.1,12.06,3.93,9.85-2.43,16.96-8.36,19.1-18.33,2.12-9.88-4.92-16.18-10.78-23.08-10.43,7.66-20.42,14.99-30.68,22.51Zm-88.82-72.26c.27-10.51-3.44-16.3-11.55-18.63-8.7-2.5-14.64,.11-19.9,8.88-2.88,4.8-2.73,10.18-2.25,15.42,.82,8.91,5.95,13.95,14.57,14.96,8.46,.99,14.24-2.62,17.42-10.93,1.26-3.3,1.73-6.76,1.7-9.69Zm139.06,125.33c2.14-.48,3.63-.7,4.48-2.56-1.86-5.64-5.62-10.69-7.27-16.9,2.7-1.51,5.15-3.16,8.35-3.56,4.41,4.95,5.4,11.8,9.55,16.69,1.8-.07,3.1-.59,4.23-2.41-3.63-7.51-7.35-15.22-11.35-23.5-11.4,5.53-22.66,10.56-33.5,16.77,3.76,9.01,7.27,17.4,10.7,25.63,2.3,.09,3.77-.38,4.82-2.67-2.41-6.25-4.95-12.86-7.48-19.42,2.92-2.2,5.52-3.87,9.12-3.97,2.77,5.27,5.52,10.49,8.36,15.91Zm-351.54,8.34c-11.03-2.82-22.2-5.68-32.97-8.44-1.96,1.98-2.55,3.62-2.48,5.63,4.12,2.62,9.41,2.05,13.77,5.01-.35,4.7-1.47,9.22-3.7,13.83-5.21-1.2-9.99-2.3-14.81-3.4-1.07,2.18-2.03,4.07-1.05,6.68,11.46,2.75,23.04,5.52,34.46,8.26,1.74-1.78,2.5-3.5,2.08-5.79-4.3-2.41-9.76-1.55-14.18-4.71,1.59-4.42,1.3-9.2,3.63-13.68,4.68,1.08,9.17,2.12,13.61,3.14,1.88-1.79,2.18-3.79,1.63-6.53Zm23.4-97.16c5.61,5.95,11.08,11.71,16.51,17.51,2.28,2.44,3.77,5.19,2.05,8.55-1.84,3.58-5.13,4.49-8.84,4.28-3.89-.22-6.89-2.43-9.63-4.85-4.58-4.04-8.96-8.31-13.38-12.45-2.13,.53-3.13,1.99-4.16,4,6,6.71,11.93,13.64,19.8,18.43,6.69,4.07,15.35,1.64,21.18-5.54,3.94-4.85,3.17-10.99-2.32-17.03-4.35-4.78-8.85-9.44-13.32-14.12-1.12-1.17-2.11-2.62-4.04-2.61-1.67,.6-2.68,1.87-3.86,3.83Zm102.12-20.16c-5.51,1.14-10.44,3.79-16.02,4.13-1.58-3.38-3.05-6.48-3.16-10.08,3.86-2.63,8.81-2.18,12.45-4.84,.18-1.74-.22-3.08-1.7-4.47-4.04,1.17-8.25,2.38-12.57,3.63-1.46-3.1-2.57-5.78-2.82-9.18,4.8-1.64,9.45-3.24,13.98-4.79,.49-2.25,.28-3.91-1.75-5.01-6.53,2.22-13.06,4.44-20.25,6.89,3.6,11.97,7.06,23.47,10.66,35.43,8.03-1.73,15.05-4.58,22.01-6.74,.67-2,.49-3.38-.83-4.97Zm-61.14,24.35c1.45,2.64,3.9,3.92,6.87,3.82,6.56-.22,11.92-3.21,15.68-8.44,2.35-3.26,2.58-7.31,.6-10.93-2.03-3.71-5.21-5.86-9.77-5.72-3.73,.12-7.18,1.26-10.72,2.13-2.46,.6-5.06,.76-6.9-1.52-1.33-1.64-.95-3.49,.05-5.14,1.5-2.48,3.9-4.12,6.67-3.35,3.16,.88,4.86-.54,6.82-2.35-1.86-3.07-4.42-3.7-7.46-3.21-4.3,.69-7.74,2.75-10.5,6.14-3.06,3.76-2.87,7.67-.71,11.62,2.05,3.75,5.34,5.47,9.6,4.61,3.25-.66,6.43-1.67,9.63-2.54,3.07-.82,5.73-.34,7.16,2.77,1.49,3.26,.12,5.89-2.53,7.81-3.38,2.45-6.99,2.83-10.29,.34-2.24,.66-3.58,1.74-4.21,3.95Zm233.66-12.08c4.72,1.89,7.86,5.94,12.44,7.53,.8-1.32,2-2.15,1.76-3.98-4.92-4.33-10.08-8.65-16.25-12.51-8.14,9.73-15.83,19.3-23.25,29.57,6.64,5.12,12.38,10.28,19.34,14.56,.78-2.03,2.28-3.08,1.77-5.19-3.52-3.92-8.97-5.95-12.09-10.62,2.17-3.23,4.43-6.02,7.21-8.29,4.11,2.23,7.15,5.75,12.12,7.29,2.87-7.91-6.87-7.79-7.74-12.88,.97-2.13,2.57-3.77,4.7-5.49Zm-74.08-2.73c1.73,2.07,3.4,2.26,5.56,1.67,2.45-4.7,3.51-10.22,6.64-14.78,4.82,.26,8.58,3.71,13.29,4.03,.77-1.7,1.47-3.17,.86-5-3.6-2.2-8.31-2.15-11.73-5.26,.79-3.2,1.75-6.11,3.89-8.45,5.08,.85,9.15,4.29,14.19,4.52,.86-1.57,1.32-2.93,.63-4.94-6.16-2.37-12.46-5.19-19.71-7.05-4.67,12.09-9.19,23.78-13.63,35.26Zm-115.96,356.89c.6-.19,1.21-.38,1.81-.57,2.8-7.01,5.6-14.03,8.4-21.04,1.11,3.71,.86,7.3,1.18,10.83,.3,3.42-1.53,7.4,2.49,10.17,1.91-8.74,.7-17.48,.94-25.78-2.2-1.47-3.78-1.4-5.66-.64-3.63,5.97-4.78,13.37-9.24,20.03-2.49-5.92-4.78-11.07-6.82-16.32-1.41-3.64-3.51-5-7.47-3.11,0,7.98-.05,15.93,.03,23.88,.02,1.91,1.13,2.66,3.62,1.51v-20.09c5.1,7.32,5.39,15.67,10.72,21.13Zm-33.66-83.13c4.38,.21,8.42,.04,12.37-1.71,10.23-4.55,15.65-14.59,25.28-20.76-4.53-2.2-8.33-3.04-12.81-3.48-4.84,10.59-12.5,18.29-23.88,21.8-2.05,.63-1.69,2.13-.96,4.15Zm158.74-23.44c11.64,8.96,18.35,24.15,35.64,24.06,2.2-3.32,.89-4.99-2-5.96-8.98-3.04-15.05-9.38-19.67-17.35-.94-1.61-1.81-3.43-4.04-3.07-3.05,.48-6.31,.08-9.93,2.33Zm-247.23-61.04c4.28-4.84,4.99-8.19,2.43-10.99-2.46-2.69-9.32-2.88-12.5-.34-3.29,2.63-2.87,6.05,1.47,12.03-5.13,5.35-5.82,8.59-2.53,11.77,3.31,3.21,11.69,2.9,14.63-.53,3.13-3.65,2.21-7.03-3.5-11.93Zm208.24,164.56c-.6-3.96,.69-7.97-1.1-12.12-3.18,.02-6.38-.74-9.89,.62,1.41,3.87,5.21,1.02,6.9,3.27,.3,2.15,.53,4.44-.32,6.63-4.64,1.86-8.46,1.35-11.11-1.44-2.88-3.05-3.67-9.49-1.33-13.64,4-7.12,10.19-4.65,16.35-2.81-.48-5.42-4.6-4.91-7.45-5.31-5.74-.8-10.92,2.59-13.13,7.87-2.43,5.82-.95,13.48,3.3,17.07,4.45,3.76,11.3,3.85,17.78-.14Zm185.75-165.57c4.38-4.84,5.06-8.19,2.36-11.01-2.62-2.73-8.8-3-12.06-.51-1.37,1.04-2.28,2.37-2.61,4.11-.69,3.58,2.28,5.56,3.81,8.03-5.47,5.74-6.08,8.62-2.64,11.81,3.51,3.26,11.64,2.99,14.7-.49,3.11-3.53,2.12-7.1-3.55-11.94Zm-149.25,168.18c6.09,.28,4.27-4.96,7.39-6.82,2.89-.05,6.34-.37,9.71,.29q3.02,6.21,6.2,5.77c-.82-4.62-3.07-8.73-4.58-13.08-1.51-4.37-3.25-8.66-4.79-12.7-2.13-.78-4.14-1.08-4.83,.77-3.11,8.32-5.94,16.75-9.09,25.78Zm-74.39-26.69c0,5.1,.03,10.04,0,14.99-.06,6.32-1.83,8.77-6.28,8.84-4.5,.07-6.49-2.48-6.61-8.58-.08-4.16-.1-8.32-.15-12.48-.03-2.31-.84-3.48-3.67-2.25-.17,6.2-.64,12.52,.32,18.77,.82,5.31,4.92,8.16,10.42,7.85,5.6-.32,9.26-3.47,9.6-8.88,.31-4.97,.2-9.98,.1-14.97-.03-1.74-.04-3.93-3.73-3.28Zm-103.93-66.55c11,.58,25.81-12.19,25.21-21.8-2.38-.16-4.79-.32-7.64-.51-2.47,8.27-7.12,14.19-15.87,16.26-2.58,.61-3.01,3.23-1.7,6.05Zm238.28-8.02c-8.84-2.64-15.08-8.63-18.09-17.39-2.12-.49-3.71-.88-5.22,.13,.45,12.85,13.21,25.43,23.22,22.89,.85-1.67,1.09-3.39,.1-5.63Zm-323.71-61.66c-.8-5.25,.57-10.62-.89-15.71-5.37-.51-15.09,13.88-13.91,20.75h10.23c1.68,2.09,.03,4.61,2.88,6.33,2.67-2.22,1.25-7.22,5.09-8.22-.56-2.07-2.57-1.47-3.4-3.14Zm397.42,2.75c-.35-2.83-2.82-2.02-3.67-4.45,0-1.77,.03-4.42,0-7.07-.04-2.75,.35-5.58-.91-8.11-5.17-.11-14.34,13.43-13.96,20.37,3.57,1.31,7.56-.27,10.97,1.07,1.07,1.77-.14,3.92,1.82,5.55,3.84-1.1,1.21-7.25,5.76-7.35Zm-155.45,159.9c10.81,1.1,12.32,.81,13.25-2.31-2.89-1.45-6.31,.34-9.59-1.65-.55-7.25,.35-14.86-.71-22.06-1.43-.53-2.67-.6-2.79,.18-1.37,8.58-.2,17.13-.15,25.84Zm-20.73-35.63c-2.75,5.91-5.84,3.84-8.92,.49-1.13,2.81-.43,4.56,1.38,5.59,2.08,1.19,4.43,1.51,6.54-.11,1.65-1.26,2.89-2.75,.99-5.98Z"/><path class="cls-1" d="M268.73,280.12c-1.62,3.03-2.78,5.19-3.55,6.64-19.6-12.23-36.74-27.28-52.83-43.59-7.74-7.85-16.27-14.77-26.37-19.5-.75-.35-1.49-.71-2.27-.97-.26-.09-.62,.14-1.25,.31-.38,4.41,1.47,8.36,3.29,12.17,10.19,21.33,26.65,36.23,47.83,46.23,7.69,3.63,15.56,6.8,23.58,9.62,1.86,.65,3.88,1.05,5.25,2.66-.95,5.5-3.67,7.67-8.76,6.59-24.32-5.16-46.93-.38-68.35,11.55-1.26,.7-2.85,1.14-2.96,3.13,.85,1.74,2.81,1.55,4.25,1.97,6.71,1.95,13.4,4.31,20.27,5.29,12.41,1.77,24.51,1.31,34.51-8.17,6.23-5.91,9.43-7.22,14.34-7.28-.17,2.88-2.52,5.46-.86,8.47-3.89,2.09-8.02,3.06-11.62,6.47,9.29,.08,17.36,2.27,25.17,5.72,5.69,2.51,9.89,6.46,11.42,12.41,2.16,8.44,2.92,16.99-1.77,25.04-1.1,1.89-2.41,3.6-5.15,4.28-4.82-3.48-3.12-10.99-8.34-14.82-1.95,2.11-1.85,4.63-1.98,6.98-.62,10.58-3.42,20.21-10.94,28.18-4.35,4.61-9.41,7.68-15.97,9.7-1.09-6.38,.2-11.89,3.52-16.75,2.13-3.12,2.15-5.75,.21-8.71-3.07-4.69-6.12-9.39-9.44-14.49-16.55,8.89-33.92,9.74-52.27,8.7,6.1-15.02,15.52-26.89,26.71-38.25-19.95-7.68-39.38-11.07-58.9-.98-2.28-4.23,.3-5.44,2.33-6.68,5.98-3.68,12.5-6.23,18.93-9.01,10.02-4.34,19.93-8.94,30-13.47-1.33-2.06-3.26-2.02-4.98-2.47-6.63-1.74-13.12-3.9-19-7.46-3.61-2.18-7.07-2.95-11.35-2.05-9.65,2.02-19.47,2.63-29.34,2.31-2.44-.08-4.97,.1-7.44-1.07-.41-3.84,1.78-4.65,4.79-4.7,8.67-.15,17.3-.87,25.9-1.98,1.26-.16,2.72,.21,3.83-1.39-5.23-7.37-14.63-11.95-16.51-21.99,2.56-1.21,3.33,.01,4.62,1.3,13.14,13.16,27.08,25.14,45.59,30.31,10.37,2.89,20.72,3.94,31.38,1.63,3.65-.79,7.54-.48,11.54-1.15-15.45-7.98-30.33-16.69-41.28-30.4-10.86-13.59-20.7-27.82-20.32-47.37,6.89,.9,12.84,3.09,18.43,6.26,13.02,7.37,24.12,17.14,34.29,28.01,7.18,7.67,14.56,15.06,23.67,20.48,1.4,.83,2.61,2.11,4.58,2.15,1.12-1.64,.01-3.14-.45-4.58-2.91-9.05-7.77-16.76-14.75-23.37-8.06-7.63-15.82-15.63-20.85-25.77-2.94-5.91-4.73-12.1-4.38-18.76,.37-7.11,2.36-9.78,9.14-12,11.68-3.83,23.02-2.3,34.12,2.35,1.38,.58,2.73,1.23,4.11,1.8,.28,.12,.63,.07,1.59,.15,3.63-18.03,14.79-30.95,29.77-41.77,13.79,10.86,23.23,24.43,27.31,42.05,8.92-4.41,17.71-6.47,27-6.26,3.87,.08,7.64,.75,11.3,1.84,6.54,1.95,9.22,5.77,9.07,12.55-.27,12.33-6.19,22.29-13.6,31.49-4.07,5.04-8.68,9.64-12.99,14.49-6.12,6.89-9.77,14.9-11.15,24.41,2.76,.05,4.19-1.63,5.79-2.86,11.88-9.18,22.26-20.03,33.41-30.03,9.58-8.6,19.82-16.28,31.97-20.98,2.27-.88,4.56-2.13,8.31-.94-2.42,17.31-10.87,31.59-21.76,44.82-11.03,13.41-24.9,22.9-40.58,30.47,1.16,0,2.34,.12,3.49-.02,7.9-.95,15.63-.18,23.13,2.43,4.45,1.55,8.69,1.19,13.18-.11,16.92-4.9,30.84-14.66,43.79-26.17,2.73-2.43,4.88-5.95,9.78-5.59-3.94,8.31-10.6,14.43-17.82,21.06,8.49,1.45,16.53,1.61,24.52,2.18,2.33,.16,4.66,.19,6.99,.36,3.44,.25,5.11,1.97,4.49,5.73-3.94,1.41-7.95,.38-11.84,.22-9.81-.4-19.61-1.23-29.33-2.75-1.52-.24-2.87-.39-4.32,.42-7.11,3.96-14.33,7.69-22.1,10.05-.08,2.03,1.41,2.32,2.47,2.95,9.18,5.42,18.36,10.83,28.45,14.46,5.34,1.92,9.71,5.62,14.61,8.35,2.16,1.2,3.22,2.93,1.16,6.09-8.93-2.85-17.69-7.77-27.76-7.14-9.9,.62-19.12,3.73-29.5,7.11,9.6,11.68,18.39,22.87,23.79,37.69-18.14-.33-35.68,2.02-52.74-5.64-4.09,5.52-9.76,9.08-13.64,14.7,2.19,3.69,4.46,7.17,6.36,10.83,1.91,3.68,1.65,7.64,.9,11.41-2.31,1.22-3.81-.07-5.34-1.01-10.75-6.62-17.64-16.02-20.27-28.42-.72-3.42-1.15-6.9-1.83-10.33-.37-1.87-.38-4.04-3.14-5.01-2.09,5.34-2.58,11.31-6.23,16.12-4.36,.16-6.72-2.47-7.17-6.11-.68-5.59-1.25-11.37-.57-16.91,1.18-9.59,5.61-17.23,15.54-20.63,7.42-2.54,15.02-3.87,23.96-3.86-4.29-4.17-8.71-5.18-13.2-6.07,.64-2.13,3.28-2.42,3.08-4.95-.65-1.44-1.77-2.28-3.76-1.45-9.87,4.13-20.17,6.62-30.68,8.47-3.35,.59-6.55,.57-9.88-.15-7.16-1.54-14.37-2.85-21.57-4.2-1.62-.3-3.33-.27-4.56-1.7,.8-2.1,3.4-1.16,4.97-3.42-1.21-7.05,4.11-13.39,4.57-20.96,.25-4.11,3.89-3.52,6.04-1.96,4.45,3.22,9.11,1.46,14.26,2.18-1.86-4.85-1.75-9.14-1.97-13.44-.24-4.67-1.59-9.09-3.82-13.33-9.15-17.39-22.34-31.4-36.71-44.45-3.42-3.11-6.92-6.13-10.39-9.2,.54-.61,1.08-1.21,1.62-1.82,9.53,6.19,18.35,13.3,26.78,21.02,8.59,7.88,15.59,17.06,22.56,26.5,1.38-9.03,.42-17.74-2.8-25.96-8.57-21.91-24.98-33.92-48.24-36.28-13.19-1.34-17.98,4.83-14.08,17.57,3.43,11.19,10.53,20.2,19.3,27.44,10.97,9.05,16.79,20.45,18.71,34.12,.7,4.97,2.28,8.98,7.96,10.68Zm25.68,5.6c1.4,.13,2.47,.13,3.66-.18,8.26-2.21,12.34-.67,16.91,6.45,1.43,2.22,2.97,4.63,3.44,7.14,.92,4.96,4.34,6.76,8.44,6.9,6.74,.23,11.68,3.31,15.98,8.05,3.61,3.98,8.32,5.54,13.42,7.07,16.88,5.03,31.84-2.88,47.61-6.37-23.74-18.34-50.28-23.1-78.8-15.86-2.9-4.63-2.59-6.48,1.96-8.02,9.22-3.13,17.41-8.22,26.02-12.53,18.69-9.36,32.53-23.52,42.35-41.72,2.43-4.5,5.24-9.07,5.88-15.44-3.66,2.17-6.66,3.63-9.3,5.56-9.4,6.9-18.58,14.12-26.42,22.8-13.61,15.07-30.76,25.73-46.74,37.97-1.67-1.6-3.65-2.92-3.86-5.79,1.05-.94,2.01-2.16,3.27-2.88,4.21-2.39,6.4-5.56,6.49-10.73,.1-5.31,2.23-10.31,4.26-15.29,3.6-8.79,10.43-14.91,16.62-21.63,7.63-8.28,14.55-17.05,16.2-28.68,.93-6.58-.85-9.4-7.27-10.95-10.43-2.51-20.47-1.33-29.9,4.09-8.21,4.71-15.16,10.8-20.76,18.44-9.11,12.43-10,26.34-7.64,40.94,6.73-9.7,13.56-19.04,21.81-27.36,12.9-13.01,22.01-20.21,27.13-20.5-.65,1.88-2.24,2.86-3.58,4.02-15.31,13.28-28.35,28.55-39.09,45.7-5.4,8.62-10.1,17.68-8.09,28.82Zm-1.02-129c-12.97,9.24-20.72,21.61-25.31,36.49,7.45,6.26,13.69,13.75,19.58,21.9,1.63-2.48,1.06-4.7,1.04-6.78-.08-9.16-.38-18.32-.46-27.48-.03-4.12,1.56-7.03,6.94-7.07,1.07,13.14-.12,26.13,.28,39.16,2.35-.42,3.08-2.08,3.93-3.4,3.09-4.8,6.63-9.24,11.43-12.34,4.02-2.6,4.22-5.74,2.94-9.85-3.73-11.96-11.22-21.36-20.38-30.62Zm98.64,201.01c-9.68-29.13-37.06-36-63.94-24.16,1.06,.32,1.84,.52,2.59,.79,9.43,3.28,19.33,5.09,28.51,9.07,2.88,1.25,6.29,2.27,7.16,6.18-2.62,2.32-6.28,.98-9.13,3.1,11.02,6.31,22.46,7.23,34.8,5.03Zm-145.09-27.66c-15.08-11.38-52.59,8.47-56.35,29.59,13.2,2.51,24.75-1.99,36.47-7.95-2.02-1.47-3.93-.72-5.65-1.01-1.74-.3-3.69-.12-5.08-2.33,8.8-8.22,22.15-8.94,30.61-18.29Zm24.81-38.72c1.82,7.94,7.17,12,12.22,9.56-.18-7.47-3.86-10.44-12.22-9.56Zm39.55,3.13c-3.05-1.43-5.94-1.84-8.94-1.47-1.58,.19-2.98,.9-2.99,2.73,0,1.55,.67,2.88,2.16,3.63,3.93,1.98,8.08,.09,9.77-4.9Z"/><path class="cls-1" d="M324.46,385.26c8.05,5.85,9.23,14.19,8.16,23.19-.42,3.53-3.94,4.73-7.87,2.99-3.63-1.61-5.89-4.77-8.5-7.57-2.99-3.21-5.06-7.38-9.36-9.5-1.4,8.88,1.92,15.34,9.48,18.41,.83,3.51-.72,6.95-.72,10.59-2.91,1.13-5.64,1.08-8.9,.69-1.41-8.58-2.61-17.3-9.74-23.79,.44,12.1-5.06,24.17,1.16,36.27-4.3,1.69-6.87-.16-8.59-3.57-1.28-2.56-1.53-5.38-1.5-8.27,.06-5.83-.06-11.66-.19-17.48-.04-1.79-.01-3.69-2.24-5.4-4.95,6.17-7.44,12.91-6.3,20.71-3.21,3.11-6.49,2.42-10.07,.94-1.03-3.71-.75-7.45-.16-10.97,1.5-1.9,3.71-.86,5.73-2.2,1.57-4.86,2.83-10.17,3.09-16.65-4.43,3.07-6.59,6.88-9.55,9.89-1.75,1.78-3.41,3.64-5.13,5.46-2.6,2.75-5.55,5.46-9.54,3.76-3.93-1.68-3.38-5.71-3.25-9.18,.34-8.84,2.4-13.17,9.32-19.18,.43,7.16-2.52,13.32-2.98,20.58,7.17-5.11,9.9-12.55,14.03-19.33,7.03,3.59,12.57,10,20.83,9.4,8-.59,13.5-6.74,20.7-10.66,3.87,7.6,8.04,14.62,14.54,21.24,.49-7.44-3.35-13.08-3.19-19.34,.25-.34,.51-.69,.76-1.03Z"/><path class="cls-1" d="M115.23,184.33c12.93,.28,23.28,9.06,22.95,19.45-.31,9.54-8.41,17.45-17.73,17.31-12.25-.19-22.66-9.61-22.33-20.2,.29-9.22,8.08-16.76,17.11-16.56Zm5.74,29.44c4.11-.41,8.01-1.1,9.71-5.14,2.06-4.88,.91-9.11-3.34-12.38-3.68-2.83-7.73-5.13-12.6-5.23-4.12-.09-7.46,1.31-9.47,5.15-2.07,3.94-.94,7.55,1.57,10.64,3.63,4.48,8.65,6.51,14.13,6.95Z"/><path class="cls-1" d="M421.04,177.77c10.25-7.52,20.24-14.86,30.68-22.51,5.86,6.9,12.9,13.2,10.78,23.08-2.14,9.97-9.25,15.9-19.1,18.33-4.75,1.17-8.96,.11-12.06-3.93-3.62-4.71-7.45-9.28-10.29-14.96Zm8.83,1.56c5.23,12.37,10.87,13.67,20.16,5.19,1.86-1.7,3.35-3.68,4.56-5.86,2.98-5.37,1.8-10.2-3.63-14.4-7.01,5.01-14.1,10.08-21.08,15.06Z"/><path class="cls-1" d="M332.22,105.51c.02,2.94-.44,6.39-1.7,9.69-3.18,8.31-8.96,11.92-17.42,10.93-8.62-1.01-13.75-6.05-14.57-14.96-.48-5.24-.63-10.62,2.25-15.42,5.26-8.76,11.2-11.38,19.9-8.88,8.1,2.33,11.82,8.12,11.55,18.63Zm-7.03-2.81c.08-6.95-2.05-10.38-7.67-10.88-6.09-.54-10.17,3.45-11.59,11.06-.62,3.32-.67,6.6,0,9.87,.88,4.3,3.39,7.17,7.87,7.83,4.16,.62,7.86-1.81,9.64-6.22,1.33-3.27,1.62-6.75,1.75-11.67Z"/><path class="cls-1" d="M471.28,230.84c-2.85-5.41-5.59-10.63-8.36-15.91-3.6,.1-6.2,1.77-9.12,3.97,2.53,6.57,5.07,13.17,7.48,19.42-1.06,2.29-2.53,2.76-4.82,2.67-3.44-8.23-6.94-16.62-10.7-25.63,10.85-6.22,22.1-11.24,33.5-16.77,4,8.28,7.73,15.99,11.35,23.5-1.12,1.82-2.43,2.35-4.23,2.41-4.14-4.88-5.14-11.74-9.55-16.69-3.2,.4-5.65,2.05-8.35,3.56,1.65,6.21,5.41,11.26,7.27,16.9-.85,1.86-2.34,2.08-4.48,2.56Z"/><path class="cls-1" d="M492.4,244.38c-3.08-.65-5.36,1.38-7.88,2.46-7,3.01-13.91,6.21-20.44,9.15-2.27-1.13-2.36-2.56-2.14-4.66,11.28-5.12,22.73-10.31,34.13-15.48,3.89,3.42,4.09,6.48,1.18,10.23-5.81,7.47-11.35,15.16-16.42,23.81,8.58-3.84,17.17-7.68,25.44-11.38,2.19,.81,2.31,2.36,2.69,4.4-11.49,5.2-23.08,10.44-34.46,15.59-3.38-2.29-4.19-4.88-2.22-7.6,6.53-9.01,12.84-18.2,20.2-26.58l-.07,.07Z"/><path class="cls-1" d="M119.74,239.18c.55,2.74,.24,4.74-1.63,6.53-4.44-1.03-8.93-2.06-13.61-3.14-2.33,4.48-2.04,9.26-3.63,13.68,4.42,3.16,9.88,2.3,14.18,4.71,.42,2.28-.34,4.01-2.08,5.79-11.42-2.74-23.01-5.52-34.46-8.26-.98-2.6-.02-4.49,1.05-6.68,4.81,1.11,9.6,2.21,14.81,3.4,2.23-4.6,3.35-9.13,3.7-13.83-4.36-2.97-9.65-2.39-13.77-5.01-.07-2.01,.53-3.65,2.48-5.63,10.78,2.76,21.95,5.62,32.97,8.44Z"/><path class="cls-1" d="M143.14,142.02c1.17-1.95,2.18-3.23,3.86-3.83,1.93-.01,2.92,1.43,4.04,2.61,4.47,4.68,8.96,9.34,13.32,14.12,5.49,6.03,6.26,12.17,2.32,17.03-5.82,7.18-14.49,9.61-21.18,5.54-7.87-4.79-13.8-11.72-19.8-18.43,1.03-2.01,2.04-3.46,4.16-4,4.42,4.14,8.8,8.41,13.38,12.45,2.74,2.42,5.74,4.62,9.63,4.85,3.72,.21,7-.69,8.84-4.28,1.73-3.36,.24-6.11-2.05-8.55-5.43-5.8-10.9-11.56-16.51-17.51Z"/><path class="cls-1" d="M245.26,121.85c1.32,1.58,1.5,2.97,.83,4.97-6.96,2.15-13.98,5.01-22.01,6.74-3.6-11.96-7.06-23.46-10.66-35.43,7.19-2.45,13.72-4.67,20.25-6.89,2.03,1.1,2.25,2.76,1.75,5.01-4.53,1.55-9.18,3.14-13.98,4.79,.25,3.4,1.36,6.08,2.82,9.18,4.31-1.25,8.52-2.46,12.57-3.63,1.48,1.39,1.88,2.73,1.7,4.47-3.64,2.66-8.59,2.21-12.45,4.84,.11,3.6,1.58,6.7,3.16,10.08,5.59-.33,10.51-2.99,16.02-4.13Z"/><path class="cls-1" d="M184.12,146.2c.63-2.21,1.97-3.3,4.21-3.95,3.3,2.49,6.91,2.11,10.29-.34,2.65-1.92,4.02-4.55,2.53-7.81-1.43-3.11-4.09-3.59-7.16-2.77-3.21,.86-6.39,1.88-9.63,2.54-4.26,.86-7.55-.86-9.6-4.61-2.16-3.95-2.35-7.86,.71-11.62,2.76-3.39,6.2-5.46,10.5-6.14,3.04-.49,5.6,.14,7.46,3.21-1.96,1.82-3.66,3.23-6.82,2.35-2.76-.77-5.17,.87-6.67,3.35-1,1.65-1.37,3.5-.05,5.14,1.84,2.28,4.44,2.12,6.9,1.52,3.55-.87,6.99-2.02,10.72-2.13,4.56-.14,7.74,2.01,9.77,5.72,1.98,3.62,1.74,7.67-.6,10.93-3.77,5.23-9.12,8.22-15.68,8.44-2.98,.1-5.42-1.18-6.87-3.82Z"/><path class="cls-1" d="M417.78,134.12c-2.13,1.72-3.73,3.36-4.7,5.49,.88,5.09,10.62,4.97,7.74,12.88-4.98-1.54-8.01-5.05-12.12-7.29-2.79,2.27-5.04,5.06-7.21,8.29,3.12,4.67,8.57,6.71,12.09,10.62,.51,2.11-.99,3.17-1.77,5.19-6.96-4.28-12.7-9.44-19.34-14.56,7.42-10.27,15.11-19.84,23.25-29.57,6.18,3.86,11.33,8.17,16.25,12.51,.24,1.83-.96,2.65-1.76,3.98-4.58-1.6-7.72-5.64-12.44-7.53Z"/><path class="cls-1" d="M343.7,131.39c4.44-11.48,8.96-23.17,13.63-35.26,7.24,1.86,13.54,4.68,19.71,7.05,.69,2.01,.23,3.37-.63,4.94-5.04-.23-9.11-3.67-14.19-4.52-2.14,2.34-3.1,5.25-3.89,8.45,3.42,3.1,8.13,3.05,11.73,5.26,.61,1.84-.09,3.3-.86,5-4.71-.32-8.47-3.77-13.29-4.03-3.13,4.56-4.19,10.08-6.64,14.78-2.16,.59-3.83,.4-5.56-1.67Z"/><path class="cls-1" d="M227.75,488.27c-5.32-5.46-5.62-13.82-10.72-21.13v20.09c-2.49,1.15-3.6,.4-3.62-1.51-.08-7.95-.03-15.9-.03-23.88,3.96-1.89,6.06-.53,7.47,3.11,2.04,5.25,4.33,10.4,6.82,16.32,4.46-6.67,5.61-14.06,9.24-20.03,1.88-.75,3.46-.83,5.66,.64-.24,8.3,.97,17.03-.94,25.78-4.02-2.77-2.19-6.75-2.49-10.17-.31-3.53-.07-7.11-1.18-10.83-2.8,7.01-5.6,14.03-8.4,21.04-.6,.19-1.21,.38-1.81,.57Z"/><path class="cls-1" d="M194.08,405.14c-.73-2.02-1.09-3.52,.96-4.15,11.38-3.5,19.04-11.2,23.88-21.8,4.48,.44,8.28,1.27,12.81,3.48-9.62,6.17-15.05,16.21-25.28,20.76-3.95,1.75-7.99,1.92-12.37,1.71Z"/><path class="cls-1" d="M352.82,381.7c3.62-2.25,6.88-1.84,9.93-2.33,2.24-.35,3.11,1.46,4.04,3.07,4.62,7.97,10.69,14.31,19.67,17.35,2.89,.98,4.19,2.64,2,5.96-17.29,.09-24-15.1-35.64-24.06Z"/><path class="cls-1" d="M105.59,320.67c5.71,4.91,6.63,8.28,3.5,11.93-2.94,3.43-11.32,3.74-14.63,.53-3.29-3.18-2.59-6.43,2.53-11.77-4.34-5.98-4.76-9.4-1.47-12.03,3.18-2.54,10.04-2.35,12.5,.34,2.56,2.81,1.85,6.15-2.43,10.99Zm-4.05,11.67c2.54-.25,5.27-.64,5.27-3.94,0-3.4-2.67-5.12-5.55-5.17-2.63-.05-4.61,2.02-4.73,4.85-.13,3.27,2.31,4.01,5.01,4.26Zm.66-13.22c2.06-1.71,4.43-3.07,3.38-6.14-.7-2.05-2.63-2.33-4.55-2.27-2.05,.06-3.69,.94-3.85,3.1-.23,3.09,2.06,4.23,5.03,5.31Z"/><path class="cls-1" d="M313.83,485.23c-6.47,4-13.33,3.9-17.78,.14-4.25-3.59-5.73-11.26-3.3-17.07,2.2-5.28,7.39-8.67,13.13-7.87,2.85,.4,6.97-.11,7.45,5.31-6.16-1.85-12.35-4.31-16.35,2.81-2.33,4.15-1.55,10.59,1.33,13.64,2.64,2.79,6.46,3.31,11.11,1.44,.85-2.19,.62-4.48,.32-6.63-1.69-2.25-5.49,.6-6.9-3.27,3.5-1.36,6.71-.6,9.89-.62,1.79,4.15,.5,8.16,1.1,12.12Z"/><path class="cls-1" d="M499.59,319.66c5.67,4.84,6.66,8.4,3.55,11.94-3.06,3.48-11.19,3.75-14.7,.49-3.43-3.19-2.83-6.07,2.64-11.81-1.53-2.47-4.5-4.44-3.81-8.03,.33-1.73,1.25-3.06,2.61-4.11,3.26-2.49,9.44-2.22,12.06,.51,2.7,2.82,2.02,6.17-2.36,11.01Zm-4.23,2.27c-2.83,1.15-5.21,2.68-4.72,6.09,.42,2.99,2.96,3.21,5.34,3.19,2.27-.02,4.51-.6,4.8-3.26,.41-3.84-2.66-4.82-5.42-6.01Zm.38-3.9c2.57-1.43,4.7-2.88,3.89-5.91-.56-2.1-2.43-2.46-4.41-2.39-2.03,.07-3.8,.72-4.07,2.86-.4,3.1,1.98,4.26,4.59,5.43Z"/><path class="cls-1" d="M350.33,487.84c3.15-9.03,5.99-17.45,9.09-25.78,.69-1.85,2.71-1.56,4.83-.77,1.53,4.04,3.27,8.33,4.79,12.7,1.51,4.35,3.76,8.46,4.58,13.08q-3.18,.45-6.2-5.77c-3.37-.66-6.82-.34-9.71-.29-3.12,1.86-1.31,7.1-7.39,6.82Zm15.8-11.12c-1.65-3.39-1.89-7.08-4.58-10.22-1.55,3.86-3.14,7.24-3.53,11.43,2.7-.21,5.15,.65,8.11-1.21Z"/><path class="cls-1" d="M275.94,461.15c3.69-.65,3.7,1.54,3.73,3.28,.09,4.99,.21,10-.1,14.97-.34,5.41-3.99,8.56-9.6,8.88-5.5,.31-9.61-2.54-10.42-7.85-.96-6.25-.49-12.57-.32-18.77,2.83-1.23,3.64-.06,3.67,2.25,.05,4.16,.07,8.32,.15,12.48,.12,6.1,2.1,8.65,6.61,8.58,4.45-.07,6.23-2.52,6.28-8.84,.04-4.94,0-9.89,0-14.99Z"/><path class="cls-1" d="M172.01,394.6c-1.32-2.82-.88-5.44,1.7-6.05,8.76-2.07,13.41-7.99,15.87-16.26,2.84,.19,5.26,.35,7.64,.51,.6,9.61-14.21,22.38-25.21,21.8Z"/><path class="cls-1" d="M410.29,386.58c.99,2.24,.75,3.96-.1,5.63-10.01,2.54-22.77-10.04-23.22-22.89,1.51-1.01,3.1-.62,5.22-.13,3.01,8.76,9.25,14.75,18.09,17.39Z"/><path class="cls-1" d="M86.58,324.91c.83,1.67,2.84,1.07,3.4,3.14-3.84,1-2.42,6-5.09,8.22-2.86-1.71-1.2-4.23-2.88-6.33h-10.23c-1.18-6.86,8.54-21.26,13.91-20.75,1.46,5.09,.09,10.46,.89,15.71Zm-12.25,1.9c3.64-.47,5.92,.58,8-.99v-11.14c-.29-.09-.59-.18-.88-.28-2.14,3.73-4.27,7.45-7.11,12.41Z"/><path class="cls-1" d="M484,327.67c-4.55,.1-1.92,6.25-5.76,7.35-1.96-1.63-.75-3.77-1.82-5.55-3.42-1.34-7.4,.25-10.97-1.07-.37-6.94,8.8-20.48,13.96-20.37,1.26,2.53,.87,5.36,.91,8.11,.04,2.65,0,5.3,0,7.07,.85,2.44,3.32,1.62,3.67,4.45Zm-8.07-15.22c-2.62,4.6-4.78,8.39-7.16,12.56,2.82,.65,5,1.06,7.45,0,.71-3.9,.77-7.73-.29-12.56Z"/><path class="cls-1" d="M328.55,487.57c-.06-8.71-1.23-17.26,.15-25.84,.12-.78,1.36-.7,2.79-.18,1.06,7.2,.16,14.81,.71,22.06,3.28,1.99,6.7,.2,9.59,1.65-.93,3.11-2.44,3.41-13.25,2.31Z"/><path class="cls-1" d="M307.82,451.94c1.91,3.23,.66,4.72-.99,5.98-2.11,1.61-4.46,1.29-6.54,.11-1.81-1.03-2.52-2.78-1.38-5.59,3.07,3.35,6.16,5.42,8.92-.49Z"/><path class="cls-1" d="M323.7,386.29c-.13-.26-.26-.52-.38-.78,.38-.08,.76-.17,1.14-.25-.25,.34-.51,.69-.76,1.03Z"/><path class="cls-2" d="M294.41,285.72c-2.02-11.14,2.68-20.2,8.09-28.82,10.75-17.15,23.78-32.41,39.09-45.7,1.34-1.16,2.93-2.14,3.58-4.02-5.11,.28-14.23,7.49-27.13,20.5-8.25,8.32-15.08,17.66-21.81,27.36-2.36-14.6-1.47-28.51,7.64-40.94,5.6-7.64,12.55-13.73,20.76-18.44,9.43-5.41,19.47-6.6,29.9-4.09,6.41,1.55,8.2,4.37,7.27,10.95-1.65,11.63-8.57,20.4-16.2,28.68-6.19,6.72-13.03,12.84-16.62,21.63-2.04,4.98-4.17,9.98-4.26,15.29-.09,5.18-2.28,8.34-6.49,10.73-1.26,.71-2.22,1.93-3.27,2.88,.21,2.87,2.19,4.19,3.86,5.79,15.98-12.25,33.13-22.9,46.74-37.97,7.84-8.68,17.02-15.9,26.42-22.8,2.64-1.94,5.64-3.4,9.3-5.56-.64,6.37-3.45,10.94-5.88,15.44-9.82,18.2-23.66,32.36-42.35,41.72-8.61,4.31-16.81,9.4-26.02,12.53-4.55,1.55-4.86,3.39-1.96,8.02,28.51-7.23,55.05-2.47,78.8,15.86-15.77,3.49-30.73,11.41-47.61,6.37-5.09-1.52-9.81-3.09-13.42-7.07-4.3-4.75-9.25-7.82-15.98-8.05-4.1-.14-7.53-1.94-8.44-6.9-.46-2.51-2.01-4.92-3.44-7.14-4.57-7.12-8.65-8.66-16.91-6.45-1.19,.32-2.26,.32-3.66,.18Z"/><path class="cls-2" d="M293.39,156.72c9.16,9.27,16.65,18.66,20.38,30.62,1.28,4.11,1.08,7.25-2.94,9.85-4.8,3.1-8.34,7.54-11.43,12.34-.85,1.32-1.58,2.99-3.93,3.4-.4-13.03,.79-26.02-.28-39.16-5.38,.04-6.97,2.96-6.94,7.07,.08,9.16,.38,18.32,.46,27.48,.02,2.07,.59,4.3-1.04,6.78-5.9-8.15-12.14-15.63-19.58-21.9,4.59-14.88,12.34-27.24,25.31-36.49Z"/><path class="cls-2" d="M392.04,357.73c-12.34,2.2-23.78,1.28-34.8-5.03,2.85-2.12,6.51-.77,9.13-3.1-.87-3.91-4.28-4.93-7.16-6.18-9.19-3.98-19.09-5.79-28.51-9.07-.76-.26-1.53-.47-2.59-.79,26.88-11.84,54.26-4.96,63.94,24.16Z"/><path class="cls-2" d="M246.94,330.06c-8.45,9.35-21.81,10.07-30.61,18.29,1.39,2.21,3.34,2.03,5.08,2.33,1.72,.3,3.63-.46,5.65,1.01-11.72,5.96-23.27,10.47-36.47,7.95,3.76-21.12,41.27-40.97,56.35-29.59Z"/><path class="cls-2" d="M271.76,291.34c8.36-.88,12.04,2.09,12.22,9.56-5.06,2.44-10.4-1.62-12.22-9.56Z"/><path class="cls-2" d="M311.31,294.47c-1.69,4.98-5.84,6.87-9.77,4.9-1.5-.75-2.17-2.09-2.16-3.63,0-1.84,1.4-2.54,2.99-2.73,3-.37,5.9,.04,8.94,1.47Z"/><path class="cls-2" d="M120.98,213.77c-5.48-.44-10.5-2.47-14.13-6.95-2.51-3.09-3.64-6.7-1.57-10.64,2.01-3.84,5.35-5.24,9.47-5.15,4.87,.1,8.93,2.4,12.6,5.23,4.25,3.27,5.39,7.49,3.34,12.38-1.7,4.04-5.6,4.73-9.71,5.14Z"/><path class="cls-2" d="M429.86,179.33c6.98-4.99,14.07-10.05,21.08-15.06,5.43,4.2,6.61,9.03,3.63,14.4-1.21,2.18-2.69,4.16-4.56,5.86-9.29,8.48-14.93,7.18-20.16-5.19Z"/><path class="cls-2" d="M325.19,102.7c-.12,4.92-.42,8.39-1.75,11.67-1.78,4.4-5.49,6.83-9.64,6.22-4.49-.66-7-3.53-7.87-7.83-.67-3.27-.61-6.55,0-9.87,1.41-7.61,5.5-11.6,11.59-11.06,5.61,.5,7.75,3.93,7.67,10.88Z"/><path class="cls-2" d="M492.4,244.38l.07-.07-.07,.07Z"/><path class="cls-2" d="M101.55,332.34c-2.71-.25-5.15-.99-5.01-4.26,.11-2.83,2.1-4.9,4.73-4.85,2.89,.05,5.55,1.77,5.55,5.17,0,3.3-2.72,3.69-5.27,3.94Z"/><path class="cls-2" d="M102.2,319.12c-2.96-1.08-5.26-2.22-5.03-5.31,.16-2.16,1.8-3.04,3.85-3.1,1.92-.06,3.85,.23,4.55,2.27,1.05,3.07-1.32,4.42-3.38,6.14Z"/><path class="cls-2" d="M495.35,321.93c2.76,1.19,5.83,2.18,5.42,6.01-.29,2.66-2.53,3.24-4.8,3.26-2.38,.02-4.92-.2-5.34-3.19-.49-3.41,1.89-4.94,4.72-6.09Z"/><path class="cls-2" d="M495.73,318.03c-2.61-1.17-4.99-2.33-4.59-5.43,.28-2.14,2.04-2.79,4.07-2.86,1.99-.07,3.86,.28,4.41,2.39,.8,3.03-1.33,4.48-3.89,5.91Z"/><path class="cls-2" d="M366.13,476.72c-2.97,1.86-5.41,1.01-8.11,1.21,.4-4.2,1.98-7.57,3.53-11.43,2.69,3.14,2.93,6.83,4.58,10.22Z"/><path class="cls-2" d="M74.32,326.81c2.84-4.96,4.98-8.69,7.11-12.41,.29,.09,.59,.18,.88,.28v11.14c-2.07,1.57-4.36,.52-8,.99Z"/><path class="cls-2" d="M475.93,312.45c1.06,4.83,1,8.66,.29,12.56-2.45,1.05-4.63,.65-7.45,0,2.38-4.17,4.53-7.96,7.16-12.56Z"/></g></g></svg>